<svg version="1.2" baseProfile="tiny-ps" xmlns="http://www.w3.org/2000/svg" viewBox="0 0 100 42" width="100" height="42">
	<title>lav-logo-footer-svg</title>
	<style>
		tspan { white-space:pre }
		.shp0 { fill: #001b30 } 
		.shp1 { fill: #ffffff } 
	</style>
	<g id="Group_119">
		<g id="Group_118">
			<g id="Group_117">
				<g id="Group_116">
					<path id="Path_20319" class="shp0" d="M85.09 3.1C86.52 3.34 87.95 3.6 89.37 3.86L91.15 4.18L91.18 4.19L92.69 4.5C93.92 4.75 94.65 4.97 94.55 5.56C94.47 6.09 93.39 6.52 92.77 7.15C92.58 7.34 92.41 7.55 92.25 7.77C92.08 7.99 91.94 8.22 91.8 8.45C91.67 8.69 91.55 8.93 91.44 9.18C91.34 9.44 91.25 9.69 91.18 9.96C91.11 10.22 86.58 26.61 86.42 27.31C86.38 27.5 86.35 27.69 86.35 27.88C86.34 28.07 86.36 28.27 86.4 28.45C86.44 28.64 86.51 28.83 86.59 29C86.67 29.17 86.78 29.34 86.9 29.48C87.54 30.15 88.51 30.4 88.66 30.86C88.85 31.4 88.1 31.73 86.91 32.08L85.93 32.34L85.91 32.33L84.61 32.68L79.35 34.04L79.35 34.04C78.64 34.22 77.09 34.59 76.81 34.69L51.87 41.27C51.74 41.3 51.61 41.33 51.48 41.36C51.35 41.39 51.22 41.41 51.09 41.43C50.95 41.44 50.82 41.46 50.69 41.47C50.56 41.47 50.42 41.48 50.29 41.48C50.16 41.48 50.02 41.47 49.88 41.47C49.75 41.46 49.61 41.44 49.47 41.42C49.34 41.41 49.2 41.38 49.07 41.35C48.93 41.33 48.8 41.3 48.67 41.26L23.06 34.58L20.51 33.91L20.51 33.91C18.1 33.27 16.01 32.71 15 32.45C14.96 32.44 14.92 32.43 14.89 32.42L7.39 30.49C5.75 30.14 5.62 29.65 5.65 29.3C5.71 28.7 6.75 28.29 7.34 28.03C8.63 27.47 8.78 25.58 8.78 24.76L8.78 9.86C8.78 7.96 8.16 7.6 7.15 7.2C6.35 6.88 5.37 6.5 5.33 5.92C5.3 5.42 5.76 4.95 7.06 4.65L8.99 4.31L9.27 4.26C9.73 4.17 10.2 4.07 10.67 3.96C12.25 3.67 14 3.36 15.92 3.04C18.88 2.59 22.52 1.92 26 1.55C26.37 1.37 26.76 1.19 27.15 1.03C27.54 0.88 27.93 0.74 28.33 0.61C28.73 0.48 29.14 0.38 29.55 0.28C29.96 0.19 30.37 0.11 30.79 0.05C31.19 0.03 31.6 0.03 32 0.04C32.4 0.06 32.81 0.09 33.21 0.13C33.61 0.18 34.01 0.24 34.4 0.32C34.8 0.4 35.19 0.5 35.58 0.61C39.97 0.25 44.82 0.01 50.15 0.01C53.07 0.02 56 0.09 58.92 0.22C61.85 0.36 64.77 0.55 67.68 0.81C70.6 1.07 73.51 1.39 76.41 1.77C79.31 2.15 82.2 2.59 85.09 3.1L85.09 3.1Z" />
					<path id="Path_20320" fill-rule="evenodd" class="shp1" d="M32.97 22.89L29.35 34.29L8.76 28.93C10.7 28.45 11.16 25.84 11.16 24.69L11.16 10.14C11.16 8.87 10.86 6.64 8.37 6.27C8.37 6.27 11.34 5.58 15.22 4.92C18.78 4.32 22.14 3.85 22.14 3.85C21.71 4.1 21.31 4.4 20.95 4.75C20.59 5.09 20.28 5.48 20.02 5.91C19.76 6.33 19.55 6.79 19.4 7.26C19.25 7.74 19.17 8.23 19.14 8.73L19.14 24L26.47 25.38C28.82 25.68 31.72 24.89 32.97 22.89ZM91.41 6.27C91.1 6.47 90.8 6.7 90.53 6.96C90.26 7.22 90.01 7.5 89.8 7.8C89.58 8.11 89.4 8.43 89.24 8.78C89.09 9.12 88.97 9.47 88.88 9.84L84.15 27.1C83.65 28.93 84.44 30.21 85.46 30.52L70.23 34.46C71.66 33.31 71.4 30.88 71.03 29.64L63.94 6.39C63.5 5.17 62.5 2.93 61.19 2.25C61.19 2.25 64.59 2.43 68.24 2.77C72.39 3.17 75.29 3.54 75.29 3.54C73.76 4.09 73.44 5.85 73.76 7.6L77.65 22.89L80.81 8.77C81.02 7.27 80.84 4.98 79.36 4.1C79.36 4.1 82.39 4.55 85.84 5.15C89.2 5.74 91.73 6.07 91.41 6.27ZM68.24 34.99L54.1 38.61C54.47 38.36 54.8 38.05 55.07 37.7C55.35 37.35 55.57 36.95 55.72 36.54C55.88 36.12 55.97 35.68 55.99 35.23C56.02 34.78 55.97 34.34 55.86 33.9C54.96 30.69 52.11 28.62 48.23 26.7C48.1 26.63 47.97 26.56 47.85 26.5C47.72 26.43 47.59 26.36 47.46 26.3C47.33 26.23 47.2 26.17 47.07 26.11C46.94 26.05 46.8 25.99 46.67 25.93L44.5 34.03C44.4 34.46 44.37 34.91 44.41 35.34C44.45 35.78 44.55 36.21 44.72 36.62C44.89 37.03 45.12 37.41 45.4 37.75C45.68 38.08 46.01 38.38 46.38 38.61L32.25 34.99C32.64 34.92 33.01 34.79 33.37 34.61C33.72 34.43 34.05 34.21 34.34 33.94C34.63 33.68 34.88 33.37 35.09 33.03C35.29 32.7 35.45 32.33 35.56 31.95L38.48 22.47C31.41 19.39 24.98 15.62 25.32 7.97C25.31 7.17 25.45 6.37 25.75 5.62C26.04 4.87 26.48 4.19 27.05 3.61C27.61 3.03 28.28 2.57 29.02 2.25C29.76 1.93 30.55 1.77 31.36 1.76C35.53 1.48 37.6 4.42 37.6 7.15C37.59 7.74 37.48 8.33 37.28 8.89C37.08 9.44 36.79 9.97 36.43 10.43C36.06 10.9 35.62 11.3 35.12 11.62C34.62 11.95 34.08 12.19 33.5 12.34C33.38 12.08 33.27 11.82 33.19 11.55C33.1 11.28 33.04 11 33 10.72C32.96 10.44 32.95 10.16 32.95 9.88C32.96 9.6 32.99 9.31 33.04 9.04C32.84 9.44 32.68 9.86 32.58 10.3C32.48 10.74 32.43 11.19 32.44 11.64C32.46 12.09 32.53 12.53 32.65 12.97C32.78 13.4 32.96 13.81 33.18 14.2C34.28 16.25 36.65 17.75 39.52 19.11L43.53 6.13C43.96 4.74 43.45 2.66 41.76 2.09C41.76 2.09 45.04 1.92 50.18 1.92C54.79 1.92 58.73 2.12 58.73 2.12C58.36 2.28 58.03 2.51 57.74 2.8C57.46 3.08 57.23 3.41 57.07 3.78C56.9 4.15 56.81 4.54 56.79 4.95C56.77 5.35 56.83 5.75 56.96 6.13L64.97 32.05C65.06 32.43 65.21 32.79 65.41 33.13C65.61 33.47 65.85 33.77 66.14 34.03C66.43 34.29 66.76 34.51 67.12 34.67C67.47 34.83 67.85 34.94 68.24 34.99L68.24 34.99ZM50.25 12.2L47.53 22.51C48.08 22.74 48.62 22.98 49.15 23.23C49.69 23.48 50.22 23.75 50.74 24.03C51.26 24.31 51.78 24.61 52.28 24.91C52.79 25.22 53.29 25.54 53.78 25.87L50.25 12.2Z" />
				</g>
			</g>
		</g>
	</g>
</svg>